<svg width="23" height="23" viewBox="0 0 23 23" fill="none" xmlns="http://www.w3.org/2000/svg">
<g clip-path="url(#clip0_2782_6104)">
<path d="M11.75 2.48086C14.6891 2.48086 15.0371 2.49375 16.193 2.54531C17.2672 2.59258 17.8473 2.77305 18.234 2.92344C18.7453 3.12109 19.1148 3.36172 19.4973 3.74414C19.884 4.13086 20.1203 4.49609 20.318 5.00742C20.4683 5.39414 20.6488 5.97851 20.6961 7.04844C20.7476 8.20859 20.7605 8.55664 20.7605 11.4914C20.7605 14.4305 20.7476 14.7785 20.6961 15.9344C20.6488 17.0086 20.4683 17.5887 20.318 17.9754C20.1203 18.4867 19.8797 18.8562 19.4973 19.2387C19.1105 19.6254 18.7453 19.8617 18.234 20.0594C17.8473 20.2098 17.2629 20.3902 16.193 20.4375C15.0328 20.4891 14.6848 20.5019 11.75 20.5019C8.81093 20.5019 8.46289 20.4891 7.30703 20.4375C6.23281 20.3902 5.65273 20.2098 5.26601 20.0594C4.75469 19.8617 4.38515 19.6211 4.00273 19.2387C3.61601 18.8519 3.37969 18.4867 3.18203 17.9754C3.03164 17.5887 2.85117 17.0043 2.80391 15.9344C2.75234 14.7742 2.73945 14.4262 2.73945 11.4914C2.73945 8.55234 2.75234 8.20429 2.80391 7.04844C2.85117 5.97422 3.03164 5.39414 3.18203 5.00742C3.37969 4.49609 3.62031 4.12656 4.00273 3.74414C4.38945 3.35742 4.75469 3.12109 5.26601 2.92344C5.65273 2.77305 6.23711 2.59258 7.30703 2.54531C8.46289 2.49375 8.81093 2.48086 11.75 2.48086ZM11.75 0.5C8.76367 0.5 8.38984 0.512891 7.21679 0.564453C6.04804 0.616016 5.24453 0.805078 4.54844 1.07578C3.82226 1.35937 3.20781 1.7332 2.59766 2.34766C1.9832 2.95781 1.60937 3.57227 1.32578 4.29414C1.05508 4.99453 0.866016 5.79375 0.814453 6.9625C0.762891 8.13984 0.75 8.51367 0.75 11.5C0.75 14.4863 0.762891 14.8602 0.814453 16.0332C0.866016 17.202 1.05508 18.0055 1.32578 18.7016C1.60937 19.4277 1.9832 20.0422 2.59766 20.6523C3.20781 21.2625 3.82226 21.6406 4.54414 21.9199C5.24453 22.1906 6.04375 22.3797 7.2125 22.4312C8.38554 22.4828 8.75937 22.4957 11.7457 22.4957C14.732 22.4957 15.1059 22.4828 16.2789 22.4312C17.4476 22.3797 18.2512 22.1906 18.9473 21.9199C19.6691 21.6406 20.2836 21.2625 20.8937 20.6523C21.5039 20.0422 21.882 19.4277 22.1613 18.7059C22.432 18.0055 22.6211 17.2062 22.6726 16.0375C22.7242 14.8645 22.7371 14.4906 22.7371 11.5043C22.7371 8.51797 22.7242 8.14414 22.6726 6.97109C22.6211 5.80234 22.432 4.99883 22.1613 4.30273C21.8906 3.57226 21.5168 2.95781 20.9023 2.34766C20.2922 1.7375 19.6777 1.35937 18.9559 1.08008C18.2555 0.809375 17.4562 0.620312 16.2875 0.56875C15.1101 0.512891 14.7363 0.5 11.75 0.5Z" fill="#EC3397"/>
<path d="M11.752 5.85156C8.63242 5.85156 6.10156 8.38242 6.10156 11.502C6.10156 14.6215 8.63242 17.1523 11.752 17.1523C14.8715 17.1523 17.4023 14.6215 17.4023 11.502C17.4023 8.38242 14.8715 5.85156 11.752 5.85156ZM11.752 15.1672C9.72813 15.1672 8.08672 13.5258 8.08672 11.502C8.08672 9.47813 9.72813 7.83672 11.752 7.83672C13.7758 7.83672 15.4172 9.47813 15.4172 11.502C15.4172 13.5258 13.7758 15.1672 11.752 15.1672Z" fill="#EC3397"/>
<path d="M18.943 5.62383C18.943 6.3543 18.35 6.94297 17.6238 6.94297C16.8934 6.94297 16.3047 6.35 16.3047 5.62383C16.3047 4.89336 16.8977 4.30469 17.6238 4.30469C18.35 4.30469 18.943 4.89766 18.943 5.62383Z" fill="#EC3397"/>
</g>
<defs>
<clipPath id="clip0_2782_6104">
<rect width="22" height="22" fill="white" transform="translate(0.75 0.5)"/>
</clipPath>
</defs>
</svg>
